<?xml version="1.0" encoding="UTF-8"?>
<svg width="27px" height="23px" viewBox="0 0 27 23" version="1.1" xmlns="http://www.w3.org/2000/svg" xmlns:xlink="http://www.w3.org/1999/xlink">
    <!-- Generator: Sketch 60.1 (88133) - https://sketch.com -->
    <title>Broadcast</title>
    <desc>Created with Sketch.</desc>
    <g id="Broadcast" stroke="none" stroke-width="1" fill="none" fill-rule="evenodd" stroke-linecap="round">
        <g id="Asset-1" transform="translate(1.000000, 2.000000)" stroke="#707070">
            <path d="M19.5305263,6.00875 C20.8765339,8.10705706 20.8765339,10.8404429 19.5305263,12.93875" id="Path" stroke-width="1.5"></path>
            <path d="M22.4736842,4.32875 C24.4729825,7.42509077 24.4729825,11.4699092 22.4736842,14.56625" id="Path" stroke-width="1.5"></path>
            <path d="M13.4926316,18.76625 L2.12421053,14.12 C1.42685271,13.8208761 0.979590519,13.1055 1,12.321875 L1,6.77 C0.972452835,6.00316739 1.39082738,5.29416418 2.06105263,4.971875 L13.4926316,0.3125 C13.6101872,0.276614261 13.7372258,0.304173032 13.8311428,0.385934016 C13.9250599,0.467695 13.9734182,0.592830792 13.96,0.719375 L13.96,18.34625 C13.96,18.6875 13.72,18.858125 13.4926316,18.76625 Z" id="Path" stroke-width="2"></path>
            <path d="M14.5031579,7.255625 L14.6547368,7.255625 C15.8469028,7.26270289 16.8136054,8.26132737 16.8273684,9.5 L16.8273684,9.5 C16.8273684,10.7540316 15.8489928,11.770625 14.6421053,11.770625 L14.4905263,11.770625 L14.4905263,7.255625 L14.5031579,7.255625 Z" id="Path" stroke-width="1.5"></path>
        </g>
    </g>
</svg>