<?xml version="1.0" encoding="UTF-8"?>
<svg width="72px" height="72px" viewBox="0 0 72 72" version="1.1" xmlns="http://www.w3.org/2000/svg" xmlns:xlink="http://www.w3.org/1999/xlink">
    <!-- Generator: Sketch 63.1 (92452) - https://sketch.com -->
    <title>Templates</title>
    <desc>Created with Sketch.</desc>
    <g id="Templates" stroke="none" stroke-width="1" fill="none" fill-rule="evenodd">
        <g id="Group-4" transform="translate(10.000000, 9.000000)" stroke="#FFFFFF">
            <g id="Group-3">
                <g id="Group-2" transform="translate(23.000000, 21.000000) rotate(270.000000) translate(-23.000000, -21.000000) translate(2.000000, -2.000000)" fill-rule="nonzero">
                    <path d="M42,44.3571429 L42,1.64285714 C42,0.735532197 41.2767677,0 40.3846154,0 L1.61538462,0 C0.723232327,0 0,0.735532197 0,1.64285714 L0,44.3571429 C0,45.2644678 0.723232327,46 1.61538462,46 L40.3846154,46 C41.2767677,46 42,45.2644678 42,44.3571429 Z M38.8888889,42.8275862 L3.11111111,42.8275862 L3.11111111,3.17241379 L38.8888889,3.17241379 L38.8888889,42.8275862 Z" id="Shape" fill="#7259C5"></path>
                    <path d="M8.5,23 L17.5,23 C18.3284271,23 19,22.2836556 19,21.4 L19,8.6 C19,7.7163444 18.3284271,7 17.5,7 L8.5,7 C7.67157288,7 7,7.7163444 7,8.6 L7,21.4 C7,22.2836556 7.67157288,23 8.5,23 Z M10,10.2 L16,10.2 L16,19.8 L10,19.8 L10,10.2 Z" id="Shape" fill="#7259C5"></path>
                    <path d="M8.5,39 L17.5,39 C18.3284271,39 19,38.2724627 19,37.375 L19,27.625 C19,26.7275373 18.3284271,26 17.5,26 L8.5,26 C7.67157288,26 7,26.7275373 7,27.625 L7,37.375 C7,38.2724627 7.67157288,39 8.5,39 Z M10,29.25 L16,29.25 L16,35.75 L10,35.75 L10,29.25 Z" id="Shape" fill="#000000"></path>
                    <path d="M24.5,40 L33.5,40 C34.3284271,40 35,39.2612698 35,38.35 L35,8.65 C35,7.73873016 34.3284271,7 33.5,7 L24.5,7 C23.6715729,7 23,7.73873016 23,8.65 L23,38.35 C23,39.2612698 23.6715729,40 24.5,40 Z M26,10.1428571 L32,10.1428571 L32,36.8571429 L26,36.8571429 L26,10.1428571 Z" id="Shape" fill="#7259C5"></path>
                </g>
                <g id="Group" transform="translate(10.000000, 12.000000)" fill="#C137A2" stroke-width="3">
                    <circle id="Oval" cx="21" cy="21" r="19.5"></circle>
                </g>
            </g>
        </g>
    </g>
</svg>