<?xml version="1.0" encoding="UTF-8"?>
<svg width="72px" height="72px" viewBox="0 0 72 72" version="1.1" xmlns="http://www.w3.org/2000/svg" xmlns:xlink="http://www.w3.org/1999/xlink">
    <!-- Generator: Sketch 63.1 (92452) - https://sketch.com -->
    <title>Reports</title>
    <desc>Created with Sketch.</desc>
    <g id="Reports" stroke="none" stroke-width="1" fill="none" fill-rule="evenodd">
        <g id="Group-2" transform="translate(8.000000, 6.000000)">
            <path d="M40.0901988,0 L15.1407215,0 C15.1407215,0 15.1407215,0 15.1407215,0 L15.1407215,0 C15.1044168,0 15.1044168,0 15.0860792,0 C14.9769855,0 14.8860441,0.0181785988 14.7767595,0.0547284624 C14.6858181,0.0910913266 14.5948767,0.145819789 14.5220821,0.21872685 C14.5220821,0.255276714 14.5037444,0.255276714 14.4855921,0.255276714 L14.4855921,0.255276714 C14.4855921,0.255276714 14.4855921,0.255276714 14.4855921,0.255276714 L0.273017484,14.3267305 C0.273017484,14.3267305 0.273017484,14.3267305 0.273017484,14.3267305 C0.273017484,14.3267305 0.273017484,14.3267305 0.273017484,14.3267305 C0.182075327,14.4178218 0.109283422,14.5270861 0.0727919055,14.6365487 C0.018150217,14.745813 0,14.8552755 0,14.9829111 C0,14.9829111 0,14.9829111 0,14.9829111 L0,50.0885399 C0,50.5989063 0.4004511,51 0.909994438,51 L30.0812114,51 C30.5907571,51 30.9912036,50.5989063 30.9912036,50.0885399 C30.9912036,49.5781797 30.5907571,49.1772753 30.0812114,49.1772753 L1.81979792,49.1772753 L1.81979792,15.8941813 L15.1225692,15.8941813 C15.6321149,15.8941813 16.0323704,15.4932775 16.0323704,14.9829111 L16.0323704,1.82272753 L39.180201,1.82272753 L39.180201,49.1772753 L35.6498875,49.1772753 C35.1403474,49.1772753 34.7398953,49.5781797 34.7398953,50.0885399 C34.7398953,50.5989063 35.1403474,51 35.6498875,51 L40.0901988,51 C40.5997389,51 41,50.5989063 41,50.0885399 L41,0.911457264 C41,0.401096503 40.5997389,0 40.0901988,0 Z M3,14 L14,3 L14,14 L3,14 Z M26.9167605,14 C26.4034305,14 26,13.5598942 26,12.9998974 C26,12.4398944 26.4034305,12 26.9167605,12 L36.0834262,12 C36.5967619,12 37,12.4398944 37,12.9998974 C37,13.5598942 36.5967619,14 36.0834262,14 L26.9167605,14 Z M12.8847059,18 L34.1154743,18 C34.6108611,18 35,18.4398944 35,18.9998974 C35,19.5598942 34.6108611,20 34.1154743,20 L12.8847059,20 C12.3893245,20 12,19.5598942 12,18.9998974 C12,18.4398944 12.4069725,18 12.8847059,18 Z M6.88244545,25 L35.1177365,25 C35.6118563,25 36,25.440101 36,26.0000995 C36,26.5601042 35.6118563,27 35.1177365,27 L6.88244545,27 C6.38832831,27 6,26.5601042 6,26.0000995 C6,25.440101 6.40592892,25 6.88244545,25 Z M35.1177365,34 L6.88244545,34 C6.38832831,34 6,33.5598942 6,32.9998974 C6,32.4398944 6.38832831,32 6.88244545,32 L35.1177365,32 C35.6118563,32 36,32.4398944 36,32.9998974 C36,33.5598942 35.6118563,34 35.1177365,34 Z M21.1000967,38 C21.6040934,38 22,38.4398944 22,38.9998974 C22,39.5598942 21.6040934,40 21.1000967,40 L4.90009441,40 C4.3960949,40 4,39.5598942 4,38.9998974 C4,38.4398944 4.3960949,38 4.90009441,38 L21.1000967,38 Z" id="Fill-1" fill="#7259C5"></path>
            <g id="Group" transform="translate(15.000000, 18.000000)" fill="#C137A2" stroke="#FFFFFF" stroke-width="3">
                <circle id="Oval" cx="21" cy="21" r="19.5"></circle>
            </g>
        </g>
    </g>
</svg>