<?xml version="1.0" encoding="UTF-8"?>
<svg width="72px" height="72px" viewBox="0 0 72 72" version="1.1" xmlns="http://www.w3.org/2000/svg" xmlns:xlink="http://www.w3.org/1999/xlink">
    <!-- Generator: Sketch 63.1 (92452) - https://sketch.com -->
    <title>Payments</title>
    <desc>Created with Sketch.</desc>
    <g id="Payments" stroke="none" stroke-width="1" fill="none" fill-rule="evenodd">
        <g id="Group-3" transform="translate(11.000000, 8.000000)">
            <g id="Group-2">
                <path d="M43.7500944,9.88668619 L6.92857222,9.88668619 L32.2142833,1.99477682 C33.2857167,1.66981211 34.4107611,1.8503066 35.3035222,2.53664458 C36.1964778,3.2047755 36.7142833,4.23409033 36.7142833,5.38986324 C36.7142833,5.89551181 37.1250444,6.29290378 37.6250444,6.29290378 C38.1250444,6.29290378 38.5358056,5.87749967 38.5358056,5.37185111 C38.5358056,3.65620387 37.7500944,2.08521622 36.3927611,1.05571202 C35.0178111,0.0264027665 33.3035222,-0.262543247 31.6786667,0.243110885 L0.642857222,9.92271045 C0.625046667,9.92271045 0.625046667,9.94071701 0.607236667,9.94071701 C0.571428333,9.95891851 0.535808,9.95891851 0.517810278,9.97693065 C0.482189722,9.99494278 0.464379444,10.0129549 0.428571444,10.0129549 C0.410761167,10.0311564 0.392950889,10.0491685 0.357142833,10.0671807 C0.339332611,10.0851928 0.321522333,10.1033943 0.285714278,10.1214009 C0.267904,10.139413 0.250093778,10.1756266 0.232096,10.1936388 C0.214285722,10.2116509 0.196475444,10.229663 0.178665167,10.2478645 C0.160667444,10.2838888 0.142857167,10.3018954 0.125046889,10.338109 C0.125046889,10.3561211 0.107236611,10.3741332 0.0892388333,10.4103469 C0.0714285556,10.428359 0.0714285556,10.4645726 0.0536182944,10.4825848 C0.0536182944,10.5186035 0.0358080222,10.536805 0.0358080222,10.5728292 C0.0358080222,10.6090429 0.0178102722,10.627055 0.0178102722,10.6630793 C0.0178102722,10.6992873 0.0178102722,10.7353116 0,10.7535131 C0,10.7715252 0,10.7895374 0,10.7895374 L0,37.6794619 C0,41.1647923 2.80352444,44 6.25009444,44 L43.7500944,44 C47.1964722,44 50,41.1647923 50,37.6794619 L50,16.2072236 C50,12.7218927 47.1964722,9.88668619 43.7500944,9.88668619 Z M48.1786667,37.6794619 C48.1786667,40.1534907 46.1964722,42.1580806 43.7500944,42.1580806 L6.25009444,42.1580806 C3.80352444,42.1580806 1.82152222,40.1534907 1.82152222,37.6794619 L1.82152222,11.71059 L43.7500944,11.71059 C46.1964722,11.71059 48.1786667,13.7151833 48.1786667,16.1892115 L48.1786667,37.6794619 Z M37.8571444,23.2503071 C35.6428556,23.2503071 33.8393333,25.0742165 33.8393333,27.3135244 C33.8393333,29.5528379 35.6428556,31.3767417 37.8571444,31.3767417 C40.0714278,31.3767417 41.8749556,29.5528379 41.8749556,27.3135244 C41.8749556,25.0742165 40.0714278,23.2503071 37.8571444,23.2503071 Z M37.8571444,29.5528379 C36.6428556,29.5528379 35.6428556,28.5595473 35.6428556,27.3135244 C35.6428556,26.0855191 36.6250444,25.0742165 37.8571444,25.0742165 C39.0714278,25.0742165 40.0714278,26.067507 40.0714278,27.3135244 C40.0714278,28.5415352 39.0714278,29.5528379 37.8571444,29.5528379 Z" id="Fill-1" fill="#7259C5"></path>
                <g id="Group" transform="translate(9.000000, 15.000000)" fill="#C137A2" stroke="#FFFFFF" stroke-width="3">
                    <circle id="Oval" cx="21" cy="21" r="19.5"></circle>
                </g>
            </g>
        </g>
    </g>
</svg>