<?xml version="1.0" encoding="UTF-8"?>
<svg width="18px" height="14px" viewBox="0 0 18 14" version="1.1" xmlns="http://www.w3.org/2000/svg" xmlns:xlink="http://www.w3.org/1999/xlink">
    <!-- Generator: Sketch 60.1 (88133) - https://sketch.com -->
    <title>Small</title>
    <desc>Created with Sketch.</desc>
    <g id="Page-1" stroke="none" stroke-width="1" fill="none" fill-rule="evenodd">
        <g id="Small" fill="#757575" fill-rule="nonzero">
            <path d="M0.34,0.47 L0.34,13.53 L17.65,13.53 L17.65,0.47 L0.34,0.47 Z M4.14,11.53 L2.34,11.53 L2.34,8 L4.14,8 L4.14,11.53 Z M4.14,6.01 L2.34,6.01 L2.34,2.47 L4.14,2.47 L4.14,6.01 Z M8.14,11.53 L6.14,11.53 L6.14,8 L8.14,8 L8.14,11.53 Z M8.14,6.01 L6.14,6.01 L6.14,2.47 L8.14,2.47 L8.14,6.01 Z M12.14,11.53 L10.14,11.53 L10.14,8 L12.14,8 L12.14,11.53 Z M10.14,6.01 L10.14,2.47 L12.14,2.47 L12.14,6 L10.14,6.01 Z M15.65,11.53 L14.14,11.53 L14.14,8 L15.65,8 L15.65,11.53 Z M15.65,6.01 L14.14,6.01 L14.14,2.47 L15.65,2.47 L15.65,6.01 Z" id="Shape"></path>
        </g>
    </g>
</svg>