<?xml version="1.0" encoding="UTF-8"?>
<svg width="18px" height="18px" viewBox="0 0 18 18" version="1.1" xmlns="http://www.w3.org/2000/svg" xmlns:xlink="http://www.w3.org/1999/xlink">
    <!-- Generator: Sketch 63.1 (92452) - https://sketch.com -->
    <title>v</title>
    <desc>Created with Sketch.</desc>
    <g id="v" stroke="none" stroke-width="1" fill="none" fill-rule="evenodd">
        <path d="M1,16 L18,16 L18,3 L1,3 L1,16 Z M13,8.5 L16,8.5 L16,5 L13,5 L13,8.5 Z M8,8.5 L11.001,8.5 L11.001,5 L8,5 L8,8.5 Z M3,8.5 L6,8.5 L6,5 L3,5 L3,8.5 Z M13,14 L16,14 L16,10.5 L13,10.5 L13,14 Z M8,14 L11.001,14 L11.001,10.5 L8,10.5 L8,14 Z M3,14 L6,14 L6,10.5 L3,10.5 L3,14 Z" id="Fill-6" fill="#707070"></path>
    </g>
</svg>