<?xml version="1.0" encoding="UTF-8"?>
<svg width="23px" height="23px" viewBox="0 0 23 23" version="1.1" xmlns="http://www.w3.org/2000/svg" xmlns:xlink="http://www.w3.org/1999/xlink">
    <!-- Generator: Sketch 60.1 (88133) - https://sketch.com -->
    <title>notificationAlert</title>
    <desc>Created with Sketch.</desc>
    <defs>
        <path d="M11,21 C12.1033099,21 13.0060181,20.0769231 13.0060181,18.9487179 L8.99398195,18.9487179 C8.99398195,20.0769231 9.89669007,21 11,21 Z M17.0180542,14.8461538 L17.0180542,9.71794872 C17.0180542,6.56923077 15.3831494,3.93333333 12.5045135,3.23589744 L12.5045135,2.53846154 C12.5045135,1.68717949 11.8324975,1 11,1 C10.1675025,1 9.49548646,1.68717949 9.49548646,2.53846154 L9.49548646,3.23589744 C6.62688064,3.93333333 4.98194584,6.55897436 4.98194584,9.71794872 L4.98194584,14.8461538 L2.97592778,16.8974359 L2.97592778,17.9230769 L19.0240722,17.9230769 L19.0240722,16.8974359 L17.0180542,14.8461538 Z M15.0120361,15.8717949 L6.98796389,15.8717949 L6.98796389,9.71794872 C6.98796389,7.17435897 8.50250752,5.1025641 11,5.1025641 C13.4974925,5.1025641 15.0120361,7.17435897 15.0120361,9.71794872 L15.0120361,15.8717949 Z M6.5667001,2.62051282 L5.13239719,1.15384615 C2.72517553,3.03076923 1.14042126,5.92307692 1,9.20512821 L3.00601805,9.20512821 C3.15646941,6.48717949 4.52056169,4.10769231 6.5667001,2.62051282 L6.5667001,2.62051282 Z M18.9939819,9.20512821 L21,9.20512821 C20.8495486,5.92307692 19.2647944,3.03076923 16.8676028,1.15384615 L15.44333,2.62051282 C17.4694082,4.10769231 18.8435306,6.48717949 18.9939819,9.20512821 Z" id="path-1"></path>
    </defs>
    <g id="notificationAlert" stroke="none" stroke-width="1" fill="none" fill-rule="evenodd">
        <mask id="mask-2" fill="white">
            <use xlink:href="#path-1"></use>
        </mask>
        <g id="icon/social/notifications_active_24px" fill-rule="nonzero"></g>
        <g id="✱-Color-/-Material-/-Icons-/-Preview" mask="url(#mask-2)" fill="#000000" fill-opacity="0.54">
            <g transform="translate(1.000000, -1.000000)" id="Rectangle">
                <rect x="0" y="0" width="24" height="24"></rect>
            </g>
        </g>
    </g>
</svg>