<svg xmlns="http://www.w3.org/2000/svg" viewBox="0 0 23.26 23.26"><defs><style>.cls-1{stroke:#fff;stroke-miterlimit:10;stroke-width:0.5px;}</style></defs><g id="Layer_2" data-name="Layer 2"><g id="Layer_1-2" data-name="Layer 1"><polygon points="12.58 3.72 14.79 3.72 13.72 5.8 15.66 5.8 12.45 10.01 13.41 6.87 11.49 6.87 12.58 3.72"/><path class="cls-1" d="M13.41,13A6.36,6.36,0,1,0,7.05,6.61,6.37,6.37,0,0,0,13.41,13Zm0-11.39a5,5,0,1,1-5,5A5,5,0,0,1,13.41,1.58Z"/><path class="cls-1" d="M19.55,13.23,11.9,15a2.07,2.07,0,0,0-.6-.39L7.38,12.82a4.34,4.34,0,0,0-3.58,0L.64,14.27a.67.67,0,0,0-.33.88.65.65,0,0,0,.88.33l3.16-1.43a3,3,0,0,1,2.48,0l3.93,1.76a1,1,0,0,1,.56.87,1,1,0,0,1-1.35.87L6.58,16a.66.66,0,0,0-.88.34.67.67,0,0,0,.33.88l3.4,1.52a2.29,2.29,0,0,0,3.17-2.57l7.3-1.66A1.38,1.38,0,0,1,21,17l-7.18,4.23a3,3,0,0,1-2.5.25L5.81,19.58a.66.66,0,0,0-.46,0L.68,21.37a.67.67,0,0,0-.39.86.66.66,0,0,0,.86.38L5.6,20.92l5.28,1.85a4.32,4.32,0,0,0,3.62-.36l7.18-4.23a2.72,2.72,0,0,0-2.13-4.95Z"/></g></g></svg>