<?xml version="1.0" encoding="UTF-8"?>
<svg width="20px" height="20px" viewBox="0 0 20 20" version="1.1" xmlns="http://www.w3.org/2000/svg" xmlns:xlink="http://www.w3.org/1999/xlink">
    <!-- Generator: Sketch 60.1 (88133) - https://sketch.com -->
    <title>Reports</title>
    <desc>Created with Sketch.</desc>
    <defs>
        <path d="M7,15 L5,15 L5,8 L7,8 L7,15 Z M11,15 L9,15 L9,5 L11,5 L11,15 Z M15,15 L13,15 L13,11 L15,11 L15,15 Z M17,17 L3,17 L3,3 L17,3 L17,17 Z M17,1 L3,1 C1.9,1 1,1.9 1,3 L1,17 C1,18.1 1.9,19 3,19 L17,19 C18.1,19 19,18.1 19,17 L19,3 C19,1.9 18.1,1 17,1 Z" id="path-1"></path>
    </defs>
    <g id="Reports" stroke="none" stroke-width="1" fill="none" fill-rule="evenodd">
        <mask id="mask-2" fill="white">
            <use xlink:href="#path-1"></use>
        </mask>
        <use id="icon/editor/insert_chart_outlined_24px" fill="#4598cc" fill-rule="nonzero" xlink:href="#path-1"></use>
        <g id="↳-Color" mask="url(#mask-2)" fill="#4598cc">
            <g transform="translate(-2.000000, -2.000000)" id="Rectangle">
                <rect x="0" y="0" width="24" height="24"></rect>
            </g>
        </g>
    </g>
</svg>