<?xml version="1.0" encoding="UTF-8"?>
<svg width="23px" height="24px" viewBox="0 0 23 24" version="1.1" xmlns="http://www.w3.org/2000/svg" xmlns:xlink="http://www.w3.org/1999/xlink">
    <!-- Generator: Sketch 60.1 (88133) - https://sketch.com -->
    <title>accountActivityAlert</title>
    <desc>Created with Sketch.</desc>
    <defs>
        <path d="M8,7 L10,7 L10,9 L8,9 L8,7 Z M8,11 L10,11 L10,17 L8,17 L8,11 Z M14,1.01 L4,1 C2.9,1 2,1.9 2,3 L2,21 C2,22.1 2.9,23 4,23 L14,23 C15.1,23 16,22.1 16,21 L16,3 C16,1.9 15.1,1.01 14,1.01 Z M14,21 L4,21 L4,20 L14,20 L14,21 Z M14,18 L4,18 L4,6 L14,6 L14,18 Z M4,4 L4,3 L14,3 L14,4 L4,4 Z" id="path-1"></path>
    </defs>
    <g id="accountActivityAlert" stroke="none" stroke-width="1" fill="none" fill-rule="evenodd">
        <mask id="mask-2" fill="white">
            <use xlink:href="#path-1"></use>
        </mask>
        <g id="icon/action/perm_device_information_24px" fill-rule="nonzero"></g>
        <g id="✱-Color-/-Material-/-Icons-/-Preview" mask="url(#mask-2)" fill="#000000" fill-opacity="0.54">
            <g transform="translate(2.000000, 0.000000)" id="Rectangle">
                <rect x="0" y="0" width="24" height="24"></rect>
            </g>
        </g>
    </g>
</svg>