<svg xmlns="http://www.w3.org/2000/svg" viewBox="0 0 24 18.62"><defs><style>.cls-1{fill:#707070;}</style></defs><g id="Layer_2" data-name="Layer 2"><g id="Layer_1-2" data-name="Layer 1"><rect class="cls-1" x="4.97" width="14.07" height="7.86"/><path class="cls-1" d="M21.9,6.21h-.8V9.93H2.9V6.21H2.1A2.1,2.1,0,0,0,0,8.31v8.21a2.1,2.1,0,0,0,2.1,2.1H21.9a2.1,2.1,0,0,0,2.1-2.1V8.31A2.1,2.1,0,0,0,21.9,6.21ZM2.9,16.76a1,1,0,1,1,0-2.07,1,1,0,0,1,0,2.07Z"/><rect class="cls-1" x="2.9" y="16.76" width="2.61" height="1.86"/></g></g></svg>