<?xml version="1.0" encoding="UTF-8"?>
<svg width="72px" height="72px" viewBox="0 0 72 72" version="1.1" xmlns="http://www.w3.org/2000/svg" xmlns:xlink="http://www.w3.org/1999/xlink">
    <!-- Generator: Sketch 63.1 (92452) - https://sketch.com -->
    <title>Messages</title>
    <desc>Created with Sketch.</desc>
    <g id="Messages" stroke="none" stroke-width="1" fill="none" fill-rule="evenodd">
        <g id="Group-2" transform="translate(8.000000, 13.000000)">
            <path d="M48.1250016,0 C0.875000078,0 0.875000078,0 0.875000078,0 C0.437500039,0 0,0.444442034 0,0.888889492 C0,31.1111121 0,31.1111121 0,31.1111121 C0,31.5555563 0.437500039,32 0.875000078,32 C35,32 35,32 35,32 C35.4375023,32 35.8750016,31.5555563 35.8750016,31.1111121 C35.8750016,30.6666679 35.4375023,30.2222237 35,30.2222237 C2.62500023,30.2222237 2.62500023,30.2222237 2.62500023,30.2222237 C17.5,17.3333315 17.5,17.3333315 17.5,17.3333315 C22.3124984,21.777779 22.3124984,21.777779 22.3124984,21.777779 C22.7499977,22.222221 23.6250016,22.6666685 24.5,22.6666685 C25.3749984,22.6666685 26.2500023,22.222221 26.6875016,21.777779 C31.5,17.3333315 31.5,17.3333315 31.5,17.3333315 C46.3749992,30.2222237 46.3749992,30.2222237 46.3749992,30.2222237 C42,30.2222237 42,30.2222237 42,30.2222237 C41.5625023,30.2222237 41.1249977,30.6666679 41.1249977,31.1111121 C41.1249977,31.5555563 41.5625023,32 42,32 C48.1250016,32 48.1250016,32 48.1250016,32 C48.5625008,32 49,31.5555563 49,31.1111121 C49,0.888889492 49,0.888889492 49,0.888889492 C49,0.444442034 48.5625008,0 48.1250016,0 Z M2,29 C2,3 2,3 2,3 C16,16.2203381 16,16.2203381 16,16.2203381 L2,29 Z M25.8163242,20.6666644 C24.9387747,21.1111119 24.0612253,21.1111119 23.1836758,20.6666644 C3,2 3,2 3,2 C46,2 46,2 46,2 L25.8163242,20.6666644 Z M47,3 C47,29 47,29 47,29 C33,16.2203381 33,16.2203381 33,16.2203381 L47,3 Z" id="Fill-1" fill="#007856"></path>
            <g id="Group" transform="translate(15.000000, 11.000000)" fill="#007856" stroke="#FFFFFF" stroke-width="3">
                <circle id="Oval" cx="21" cy="21" r="19.5"></circle>
            </g>
        </g>
    </g>
</svg>