<?xml version="1.0" encoding="UTF-8"?>
<svg width="72px" height="72px" viewBox="0 0 72 72" version="1.1" xmlns="http://www.w3.org/2000/svg" xmlns:xlink="http://www.w3.org/1999/xlink">
    <!-- Generator: Sketch 63.1 (92452) - https://sketch.com -->
    <title>Action List</title>
    <desc>Created with Sketch.</desc>
    <g id="Action-List" stroke="none" stroke-width="1" fill="none" fill-rule="evenodd">
        <g id="Group-3" transform="translate(10.000000, 6.000000)">
            <g id="Group-2">
                <g id="shopping-list" fill-rule="nonzero">
                    <path d="M18.5233651,18.4897638 C17.9220399,17.8730459 16.9445011,17.8698833 16.3400922,18.4866011 L11.264291,23.6954951 L9.27220871,21.6492568 C8.67088354,21.032539 7.69334468,21.032539 7.09201952,21.6492568 C6.49069435,22.2659747 6.49069435,23.2685366 7.09201952,23.8852544 L10.1757383,27.0479101 C10.474859,27.3578504 10.869575,27.5128205 11.264291,27.5128205 C11.6590071,27.5128205 12.0537231,27.3578504 12.3559275,27.0510728 L18.5233651,20.7257614 C19.1246903,20.1090435 19.1246903,19.1064817 18.5233651,18.4897638 Z" id="Path" stroke="#FFFFFF" stroke-width="0.948717949" fill="#007856"></path>
                    <path d="M18.5233651,30.8230971 C17.9220399,30.2063793 16.9445011,30.2032166 16.3400922,30.8199345 L11.264291,36.0288284 L9.27220871,33.9857528 C8.67088354,33.369035 7.69334468,33.369035 7.09201952,33.9857528 C6.49069435,34.6024707 6.49069435,35.6050325 7.09201952,36.2217504 L10.1757383,39.3844061 C10.474859,39.6911837 10.869575,39.8461538 11.264291,39.8461538 C11.6590071,39.8461538 12.0537231,39.6911837 12.3559275,39.3844061 L18.5233651,33.0590947 C19.1246903,32.4423768 19.1246903,31.439815 18.5233651,30.8230971 Z" id="Path" stroke="#FFFFFF" stroke-width="0.948717949" fill="#007856"></path>
                    <path d="M28.7777778,20.8717949 L22.4529915,20.8717949 C21.5801709,20.8717949 20.8717949,21.5093333 20.8717949,22.2948718 C20.8717949,23.0804103 21.5801709,23.7179487 22.4529915,23.7179487 L28.7777778,23.7179487 C29.6505983,23.7179487 30.3589744,23.0804103 30.3589744,22.2948718 C30.3589744,21.5093333 29.6505983,20.8717949 28.7777778,20.8717949 Z" id="Path" fill="#000000"></path>
                    <path d="M28.7777778,34.1538462 L22.4529915,34.1538462 C21.5801709,34.1538462 20.8717949,34.7913846 20.8717949,35.5769231 C20.8717949,36.3624615 21.5801709,37 22.4529915,37 L28.7777778,37 C29.6505983,37 30.3589744,36.3624615 30.3589744,35.5769231 C30.3589744,34.7913846 29.6505983,34.1538462 28.7777778,34.1538462 Z" id="Path" fill="#000000"></path>
                    <path d="M33.9166667,6.04807692 L27.75,6.04807692 L27.75,4.53605769 C27.75,3.70142308 27.0593333,3.02403846 26.2083333,3.02403846 L22.8629167,3.02403846 C22.2246667,1.26404808 20.5103333,0 18.5,0 C16.4896667,0 14.7753333,1.26404808 14.1370833,3.02403846 L10.7916667,3.02403846 C9.94066667,3.02403846 9.25,3.70142308 9.25,4.53605769 L9.25,6.04807692 L3.08333333,6.04807692 C1.38441667,6.04807692 0,7.40587019 0,9.07211538 L0,45.3605769 C0,47.0268221 1.38441667,48.3846154 3.08333333,48.3846154 L33.9166667,48.3846154 C35.6155833,48.3846154 37,47.0268221 37,45.3605769 L37,9.07211538 C37,7.40587019 35.6155833,6.04807692 33.9166667,6.04807692 Z M12.3333333,6.04807692 L15.4166667,6.04807692 C16.2676667,6.04807692 16.9583333,5.37069231 16.9583333,4.53605769 C16.9583333,3.70142308 17.649,3.02403846 18.5,3.02403846 C19.351,3.02403846 20.0416667,3.70142308 20.0416667,4.53605769 C20.0416667,5.37069231 20.7323333,6.04807692 21.5833333,6.04807692 L24.6666667,6.04807692 L24.6666667,9.07211538 L12.3333333,9.07211538 L12.3333333,6.04807692 Z M33.9166667,45.3605769 L3.08333333,45.3605769 L3.08333333,9.07211538 L9.25,9.07211538 L9.25,10.5841346 C9.25,11.4187692 9.94066667,12.0961538 10.7916667,12.0961538 L26.2083333,12.0961538 C27.0593333,12.0961538 27.75,11.4187692 27.75,10.5841346 L27.75,9.07211538 L33.9166667,9.07211538 L33.9166667,45.3605769 Z" id="Shape" stroke="#FFFFFF" stroke-width="0.948717949" fill="#007856"></path>
                </g>
                <g id="Group" transform="translate(10.000000, 18.000000)" fill="#007856" stroke="#FFFFFF" stroke-width="3">
                    <circle id="Oval" cx="21" cy="21" r="19.5"></circle>
                </g>
            </g>
        </g>
    </g>
</svg>