<?xml version="1.0" encoding="UTF-8"?>
<svg width="23px" height="24px" viewBox="0 0 23 24" version="1.1" xmlns="http://www.w3.org/2000/svg" xmlns:xlink="http://www.w3.org/1999/xlink">
    <!-- Generator: Sketch 60.1 (88133) - https://sketch.com -->
    <title>SecuritAlert</title>
    <desc>Created with Sketch.</desc>
    <defs>
        <path d="M12,1 L3,5 L3,11 C3,16.55 6.84,21.74 12,23 C17.16,21.74 21,16.55 21,11 L21,5 L12,1 Z M19,11 C19,15.52 16.02,19.69 12,20.93 C7.98,19.69 5,15.52 5,11 L5,6.3 L12,3.19 L19,6.3 L19,11 Z" id="path-1"></path>
    </defs>
    <g id="SecuritAlert" stroke="none" stroke-width="1" fill="none" fill-rule="evenodd">
        <polygon id="Path" fill="#757575" fill-rule="nonzero" points="11 14 13 14 13 16 11 16"></polygon>
        <polygon id="Path" fill="#757575" fill-rule="nonzero" points="11 6 13 6 13 12 11 12"></polygon>
        <mask id="mask-2" fill="white">
            <use xlink:href="#path-1"></use>
        </mask>
        <g id="icon/action/verified_user_24px" fill-rule="nonzero"></g>
        <g id="↳-Color" mask="url(#mask-2)" fill="#000000" fill-opacity="0.54">
            <g transform="translate(3.000000, 0.000000)" id="Rectangle">
                <rect x="0" y="0" width="24" height="24"></rect>
            </g>
        </g>
    </g>
</svg>